<svg width="22" height="20" viewBox="0 0 22 20" fill="none" xmlns="http://www.w3.org/2000/svg">
<path fill-rule="evenodd" clip-rule="evenodd" d="M10.7499 1.69228C11.9257 0.60872 13.4569 0 15.0553 0C16.7813 0 18.429 0.709767 19.6354 1.96074C20.8332 3.20181 21.5 4.8748 21.5 6.61222C21.5 8.3497 20.8331 10.0228 19.6354 11.2637C18.839 12.0893 18.0438 12.9336 17.2445 13.7823C15.621 15.5062 13.9801 17.2485 12.2756 18.89L12.2716 18.8938C11.3926 19.7279 10.0005 19.6976 9.15903 18.8254L1.86399 11.2636C-0.62133 8.68736 -0.62133 4.53707 1.86399 1.96085C4.29605 -0.560155 8.21239 -0.649677 10.7499 1.69228Z" fill="#1B1366"/>
</svg>
