<svg width="20" height="20" viewBox="0 0 20 20" fill="none" xmlns="http://www.w3.org/2000/svg">
<path fill-rule="evenodd" clip-rule="evenodd" d="M19.2 9.6C19.2 14.9019 14.9019 19.2 9.6 19.2C4.29807 19.2 0 14.9019 0 9.6C0 4.29807 4.29807 0 9.6 0C14.9019 0 19.2 4.29807 19.2 9.6ZM12 6C12 7.32548 10.9255 8.4 9.6 8.4C8.27452 8.4 7.2 7.32548 7.2 6C7.2 4.67452 8.27452 3.6 9.6 3.6C10.9255 3.6 12 4.67452 12 6ZM9.59992 10.8C7.17887 10.8 5.09273 12.2339 4.14448 14.2989C5.46484 15.8304 7.41918 16.8 9.59998 16.8C11.7807 16.8 13.735 15.8305 15.0554 14.299C14.1072 12.234 12.021 10.8 9.59992 10.8Z" fill="#64748B"/>
</svg>
