<svg width="84" height="84" viewBox="0 0 84 84" fill="none" xmlns="http://www.w3.org/2000/svg">
<path d="M16.0417 62.9167C19.5833 60.2083 23.5417 58.0729 27.9167 56.5104C32.2917 54.9479 36.875 54.1667 41.6667 54.1667C46.4583 54.1667 51.0417 54.9479 55.4167 56.5104C59.7917 58.0729 63.75 60.2083 67.2917 62.9167C69.7222 60.0695 71.6146 56.8403 72.9688 53.2292C74.3229 49.6181 75 45.7639 75 41.6667C75 32.4306 71.7535 24.566 65.2604 18.0729C58.7674 11.5799 50.9028 8.33333 41.6667 8.33333C32.4306 8.33333 24.566 11.5799 18.0729 18.0729C11.5799 24.566 8.33333 32.4306 8.33333 41.6667C8.33333 45.7639 9.01042 49.6181 10.3646 53.2292C11.7188 56.8403 13.6111 60.0695 16.0417 62.9167ZM41.6667 45.8333C37.5694 45.8333 34.1146 44.4271 31.3021 41.6146C28.4896 38.8021 27.0833 35.3472 27.0833 31.25C27.0833 27.1528 28.4896 23.6979 31.3021 20.8854C34.1146 18.0729 37.5694 16.6667 41.6667 16.6667C45.7639 16.6667 49.2188 18.0729 52.0313 20.8854C54.8438 23.6979 56.25 27.1528 56.25 31.25C56.25 35.3472 54.8438 38.8021 52.0313 41.6146C49.2188 44.4271 45.7639 45.8333 41.6667 45.8333ZM41.6667 83.3333C35.9028 83.3333 30.4861 82.2396 25.4167 80.0521C20.3472 77.8646 15.9375 74.8958 12.1875 71.1458C8.4375 67.3958 5.46875 62.9861 3.28125 57.9167C1.09375 52.8472 0 47.4306 0 41.6667C0 35.9028 1.09375 30.4861 3.28125 25.4167C5.46875 20.3472 8.4375 15.9375 12.1875 12.1875C15.9375 8.4375 20.3472 5.46875 25.4167 3.28125C30.4861 1.09375 35.9028 0 41.6667 0C47.4306 0 52.8472 1.09375 57.9167 3.28125C62.9861 5.46875 67.3958 8.4375 71.1458 12.1875C74.8958 15.9375 77.8646 20.3472 80.0521 25.4167C82.2396 30.4861 83.3333 35.9028 83.3333 41.6667C83.3333 47.4306 82.2396 52.8472 80.0521 57.9167C77.8646 62.9861 74.8958 67.3958 71.1458 71.1458C67.3958 74.8958 62.9861 77.8646 57.9167 80.0521C52.8472 82.2396 47.4306 83.3333 41.6667 83.3333ZM41.6667 75C45.3472 75 48.8194 74.4618 52.0833 73.3854C55.3472 72.309 58.3333 70.7639 61.0417 68.75C58.3333 66.7361 55.3472 65.191 52.0833 64.1146C48.8194 63.0382 45.3472 62.5 41.6667 62.5C37.9861 62.5 34.5139 63.0382 31.25 64.1146C27.9861 65.191 25 66.7361 22.2917 68.75C25 70.7639 27.9861 72.309 31.25 73.3854C34.5139 74.4618 37.9861 75 41.6667 75ZM41.6667 37.5C43.4722 37.5 44.9653 36.9097 46.1458 35.7292C47.3264 34.5486 47.9167 33.0556 47.9167 31.25C47.9167 29.4444 47.3264 27.9514 46.1458 26.7708C44.9653 25.5903 43.4722 25 41.6667 25C39.8611 25 38.3681 25.5903 37.1875 26.7708C36.0069 27.9514 35.4167 29.4444 35.4167 31.25C35.4167 33.0556 36.0069 34.5486 37.1875 35.7292C38.3681 36.9097 39.8611 37.5 41.6667 37.5Z" fill="#1C1B1F"/>
</svg>
