<svg width="38" height="38" viewBox="0 0 38 38" fill="none" xmlns="http://www.w3.org/2000/svg">
<path d="M35.3125 37.5C30.9722 37.5 26.684 36.5538 22.4479 34.6615C18.2118 32.7691 14.3576 30.0868 10.8854 26.6146C7.41319 23.1424 4.7309 19.2882 2.83854 15.0521C0.946181 10.816 0 6.52778 0 2.1875C0 1.5625 0.208333 1.04167 0.625 0.625C1.04167 0.208333 1.5625 0 2.1875 0H10.625C11.1111 0 11.5451 0.164931 11.9271 0.494792C12.309 0.824653 12.5347 1.21528 12.6042 1.66667L13.9583 8.95833C14.0278 9.51389 14.0104 9.98264 13.9063 10.3646C13.8021 10.7465 13.6111 11.0764 13.3333 11.3542L8.28125 16.4583C8.9757 17.7431 9.80035 18.9844 10.7552 20.1823C11.7101 21.3802 12.7604 22.5347 13.9063 23.6458C14.9826 24.7222 16.1111 25.7205 17.2917 26.6406C18.4722 27.5608 19.7222 28.4028 21.0417 29.1667L25.9375 24.2708C26.25 23.9583 26.658 23.724 27.1615 23.5677C27.6649 23.4115 28.1597 23.3681 28.6458 23.4375L35.8333 24.8958C36.3195 25.0347 36.7188 25.2865 37.0313 25.651C37.3438 26.0156 37.5 26.4236 37.5 26.875V35.3125C37.5 35.9375 37.2917 36.4583 36.875 36.875C36.4583 37.2917 35.9375 37.5 35.3125 37.5ZM6.30208 12.5L9.73958 9.0625L8.85417 4.16667H4.21875C4.39236 5.59028 4.63542 6.99653 4.94792 8.38542C5.26042 9.77431 5.71181 11.1458 6.30208 12.5ZM24.9479 31.1458C26.3021 31.7361 27.6823 32.2049 29.0885 32.5521C30.4948 32.8993 31.9097 33.125 33.3333 33.2292V28.6458L28.4375 27.6563L24.9479 31.1458Z" 
fill="currentColor"/>
</svg>
