<svg width="50" height="50" viewBox="0 0 50 50" fill="none" xmlns="http://www.w3.org/2000/svg">
<mask id="mask0_451_140" style="mask-type:alpha" maskUnits="userSpaceOnUse" x="0" y="0" width="50" height="50">
<rect width="50" height="50" fill="#D9D9D9"/>
</mask>
<g mask="url(#mask0_451_140)">
<path d="M10.4166 41.6667V37.5H39.5833V41.6667H10.4166ZM10.4166 34.375L7.76038 17.6563C7.69093 17.6563 7.61281 17.6649 7.526 17.6823C7.4392 17.6997 7.36107 17.7083 7.29163 17.7083C6.42357 17.7083 5.68572 17.4045 5.07808 16.7969C4.47045 16.1892 4.16663 15.4514 4.16663 14.5833C4.16663 13.7153 4.47045 12.9774 5.07808 12.3698C5.68572 11.7622 6.42357 11.4583 7.29163 11.4583C8.15968 11.4583 8.89753 11.7622 9.50517 12.3698C10.1128 12.9774 10.4166 13.7153 10.4166 14.5833C10.4166 14.8264 10.3906 15.0521 10.3385 15.2604C10.2864 15.4688 10.2257 15.6597 10.1562 15.8333L16.6666 18.75L23.177 9.84375C22.7951 9.56597 22.4826 9.20139 22.2395 8.75C21.9965 8.29861 21.875 7.8125 21.875 7.29167C21.875 6.42361 22.1788 5.68576 22.7864 5.07813C23.3941 4.47049 24.1319 4.16667 25 4.16667C25.868 4.16667 26.6059 4.47049 27.2135 5.07813C27.8211 5.68576 28.125 6.42361 28.125 7.29167C28.125 7.8125 28.0034 8.29861 27.7604 8.75C27.5173 9.20139 27.2048 9.56597 26.8229 9.84375L33.3333 18.75L39.8437 15.8333C39.7743 15.6597 39.7135 15.4688 39.6614 15.2604C39.6093 15.0521 39.5833 14.8264 39.5833 14.5833C39.5833 13.7153 39.8871 12.9774 40.4948 12.3698C41.1024 11.7622 41.8402 11.4583 42.7083 11.4583C43.5764 11.4583 44.3142 11.7622 44.9218 12.3698C45.5295 12.9774 45.8333 13.7153 45.8333 14.5833C45.8333 15.4514 45.5295 16.1892 44.9218 16.7969C44.3142 17.4045 43.5764 17.7083 42.7083 17.7083C42.6389 17.7083 42.5607 17.6997 42.4739 17.6823C42.3871 17.6649 42.309 17.6563 42.2395 17.6563L39.5833 34.375H10.4166ZM13.9583 30.2083H36.0416L37.3958 21.5104L31.927 23.9063L25 14.375L18.0729 23.9063L12.6041 21.5104L13.9583 30.2083Z" fill="#1C1B1F"/>
</g>
</svg>
