<svg width="24" height="24" viewBox="0 0 24 24" fill="none" xmlns="http://www.w3.org/2000/svg">
<mask id="mask0_616_197" style="mask-type:alpha" maskUnits="userSpaceOnUse" x="0" y="0" width="24" height="24">
<rect x="0.5" y="0.5" width="23" height="23" fill="#D9D9D9" stroke="black"/>
</mask>
<g mask="url(#mask0_616_197)">
<path d="M4.99988 19H6.42488L16.1999 9.225L14.7749 7.8L4.99988 17.575V19ZM2.99988 21V16.75L16.1999 3.575C16.3999 3.39167 16.6207 3.25 16.8624 3.15C17.104 3.05 17.3582 3 17.6249 3C17.8915 3 18.1499 3.05 18.3999 3.15C18.6499 3.25 18.8665 3.4 19.0499 3.6L20.4249 5C20.6249 5.18333 20.7707 5.4 20.8624 5.65C20.954 5.9 20.9999 6.15 20.9999 6.4C20.9999 6.66667 20.954 6.92083 20.8624 7.1625C20.7707 7.40417 20.6249 7.625 20.4249 7.825L7.24988 21H2.99988ZM15.4749 8.525L14.7749 7.8L16.1999 9.225L15.4749 8.525Z"
fill="currentColor"/>
</g>
</svg>
