<svg width="50" height="50" viewBox="0 0 50 50" fill="none" xmlns="http://www.w3.org/2000/svg">
<mask id="mask0_451_134" style="mask-type:alpha" maskUnits="userSpaceOnUse" x="0" y="0" width="50" height="50">
<rect width="50" height="50" fill="#D9D9D9"/>
</mask>
<g mask="url(#mask0_451_134)">
<path d="M14.5833 29.1667C13.4374 29.1667 12.4565 28.7587 11.6405 27.9427C10.8246 27.1267 10.4166 26.1458 10.4166 25C10.4166 23.8542 10.8246 22.8733 11.6405 22.0573C12.4565 21.2413 13.4374 20.8333 14.5833 20.8333C15.7291 20.8333 16.71 21.2413 17.526 22.0573C18.3419 22.8733 18.7499 23.8542 18.7499 25C18.7499 26.1458 18.3419 27.1267 17.526 27.9427C16.71 28.7587 15.7291 29.1667 14.5833 29.1667ZM14.5833 37.5C11.111 37.5 8.15964 36.2847 5.72909 33.8542C3.29853 31.4236 2.08325 28.4722 2.08325 25C2.08325 21.5278 3.29853 18.5764 5.72909 16.1458C8.15964 13.7153 11.111 12.5 14.5833 12.5C16.9096 12.5 19.019 13.0729 20.9114 14.2187C22.8037 15.3646 24.3055 16.875 25.4166 18.75H43.7499L49.9999 25L40.6249 34.375L36.4583 31.25L32.2916 34.375L27.8645 31.25H25.4166C24.3055 33.125 22.8037 34.6354 20.9114 35.7812C19.019 36.9271 16.9096 37.5 14.5833 37.5ZM14.5833 33.3333C16.5277 33.3333 18.2378 32.7431 19.7135 31.5625C21.1892 30.3819 22.1701 28.8889 22.6562 27.0833H29.1666L32.1874 29.2188L36.4583 26.0417L40.1562 28.9062L44.0624 25L41.9791 22.9167H22.6562C22.1701 21.1111 21.1892 19.6181 19.7135 18.4375C18.2378 17.2569 16.5277 16.6667 14.5833 16.6667C12.2916 16.6667 10.3298 17.4826 8.69783 19.1146C7.06589 20.7465 6.24992 22.7083 6.24992 25C6.24992 27.2917 7.06589 29.2535 8.69783 30.8854C10.3298 32.5174 12.2916 33.3333 14.5833 33.3333Z"
fill="currentColor"/>
</g>
</svg>
