<svg width="42" height="34" viewBox="0 0 42 34" fill="none" xmlns="http://www.w3.org/2000/svg">
<path d="M4.16667 33.3333C3.02083 33.3333 2.03993 32.9254 1.22396 32.1094C0.407986 31.2934 0 30.3125 0 29.1667V4.16667C0 3.02083 0.407986 2.03993 1.22396 1.22396C2.03993 0.407986 3.02083 0 4.16667 0H37.5C38.6458 0 39.6267 0.407986 40.4427 1.22396C41.2587 2.03993 41.6667 3.02083 41.6667 4.16667V29.1667C41.6667 30.3125 41.2587 31.2934 40.4427 32.1094C39.6267 32.9254 38.6458 33.3333 37.5 33.3333H4.16667ZM20.8333 18.75L4.16667 8.33333V29.1667H37.5V8.33333L20.8333 18.75ZM20.8333 14.5833L37.5 4.16667H4.16667L20.8333 14.5833ZM4.16667 8.33333V4.16667V29.1667V8.33333Z" 
fill="currentColor"/>
</svg>