<svg width="50" height="50" viewBox="0 0 50 50" fill="none" xmlns="http://www.w3.org/2000/svg">
<mask id="mask0_451_122" style="mask-type:alpha" maskUnits="userSpaceOnUse" x="0" y="0" width="50" height="50">
<rect width="50" height="50" fill="#D9D9D9"/>
</mask>
<g mask="url(#mask0_451_122)">
<path d="M8.33329 41.6667C7.18746 41.6667 6.20656 41.2587 5.39058 40.4427C4.57461 39.6267 4.16663 38.6458 4.16663 37.5V12.5C4.16663 11.3542 4.57461 10.3733 5.39058 9.5573C6.20656 8.74133 7.18746 8.33334 8.33329 8.33334H41.6666C42.8125 8.33334 43.7934 8.74133 44.6093 9.5573C45.4253 10.3733 45.8333 11.3542 45.8333 12.5V37.5C45.8333 38.6458 45.4253 39.6267 44.6093 40.4427C43.7934 41.2587 42.8125 41.6667 41.6666 41.6667H8.33329ZM25 27.0833L8.33329 16.6667V37.5H41.6666V16.6667L25 27.0833ZM25 22.9167L41.6666 12.5H8.33329L25 22.9167ZM8.33329 16.6667V12.5V37.5V16.6667Z" fill="#1C1B1F"/>
</g>
</svg>
